Coordinates

Units are S.I. units (second, meters, Newtons, ...)
If the header above contains a line with 'inDegrees', this indicates whether rotational values are in degrees (yes) or radians (no).

inDegrees=no
nColumns=21
nRows=22
DataType=double
version=3
OpenSimVersion=4.6-2026-03-31-d6972f9e6
endheader
time	/jointset/ground_pelvis/pelvis_tilt/value	/jointset/ground_pelvis/pelvis_list/value	/jointset/ground_pelvis/pelvis_rotation/value	/jointset/ground_pelvis/pelvis_tx/value	/jointset/ground_pelvis/pelvis_ty/value	/jointset/ground_pelvis/pelvis_tz/value	/jointset/hip_r/hip_flexion_r/value	/jointset/hip_r/hip_adduction_r/value	/jointset/hip_r/hip_rotation_r/value	/jointset/walker_knee_r/knee_angle_r/value	/jointset/patellofemoral_r/knee_angle_r_beta/value	/jointset/ankle_r/ankle_angle_r/value	/jointset/subtalar_r/subtalar_angle_r/value	/jointset/hip_l/hip_flexion_l/value	/jointset/hip_l/hip_adduction_l/value	/jointset/hip_l/hip_rotation_l/value	/jointset/walker_knee_l/knee_angle_l/value	/jointset/patellofemoral_l/knee_angle_l_beta/value	/jointset/ankle_l/ankle_angle_l/value	/jointset/subtalar_l/subtalar_angle_l/value
147.496	-0.2519038978921314	-0.06643049395148308	-0.04371383124413515	1.099393420796845	0.9583280868445052	-0.3420008083649515	0.07741020337066716	0.09216741571688877	0.09668451052390456	0.4008992204253483	0.4008992207248951	0.1803371835693184	-0.2425375279810196	0.7353573400013512	-0.08520009897661211	0.07861927422177492	1.287387722886182	1.287387723086091	-0.1538236306649106	-0.4556556302568408
147.5	-0.2557428252864128	-0.05575989421188805	-0.03973909653048523	1.100390693938389	0.9615225174596977	-0.3423416391073504	0.05974615315390325	0.07981287431560816	0.09492925313656306	0.3755104793998944	0.375510479709101	0.1451897328223427	-0.2448959156927215	0.7398609147227382	-0.06999553010120489	0.07721614477572139	1.246308315468297	1.246308315627711	-0.1516692248510752	-0.4582429219358491
147.504	-0.2594989363196967	-0.04486210990016039	-0.03579974110762522	1.101440542674346	0.9646955902631678	-0.3426907119423481	0.0424145454396	0.06726005067032298	0.09191641092481254	0.3506918443288066	0.3506918446263582	0.1087567138093839	-0.2469601724635068	0.7433204423079707	-0.05470208676030858	0.07576646865569833	1.2038305530137	1.203830553144305	-0.1491787051976443	-0.4593355581275348
147.508	-0.2631413549850267	-0.0338175518881168	-0.03189082586896703	1.102540169522195	0.9678352265189754	-0.3430447075769409	0.02543472183786629	0.05460722786101805	0.08759114779008861	0.3265850857879386	0.3265850860497054	0.07129510307151093	-0.2487005315190663	0.7457515743359349	-0.03941770692914839	0.07433896084917321	1.160065943417508	1.160065943539108	-0.1462477222135987	-0.4587016280691111
147.512	-0.2666433690048032	-0.02271748431578503	-0.02801123690784054	1.103686245479445	0.9709291548160195	-0.3433999117446468	0.008828917457051177	0.04196607519495366	0.08193163864914409	0.3033364590635259	0.3033364592637138	0.03308819532376646	-0.2501044232526173	0.7471791408996091	-0.02425145215912073	0.07299611640552729	1.11514039799796	1.115140398137722	-0.1427886222995408	-0.456142915561031
147.516	-0.2699829172450581	-0.01166206897216669	-0.02416400296106515	1.104874794296538	0.9739649030523447	-0.3437523387735972	-0.007376822629838066	0.0294583423846368	0.07495094688694924	0.2810971038142951	0.2810971039270607	-0.005556676580608277	-0.2511752351712318	0.7476377052272835	-0.009321229372341807	0.07179296432821025	1.069194693595708	1.069194693786173	-0.1387332281082575	-0.4515023990419774
147.52	-0.2731429246497697	-0.0007580792279198755	-0.02035634018531	1.106101085250978	0.9769298235545801	-0.3440978843246569	-0.02315185994938123	0.01721212993127568	0.06669775668499998	0.2600231618008742	0.2600231618019732	-0.04431149327720103	-0.2519304362221546	0.7471719187435913	0.005248968470832939	0.07077623940210277	1.022384522231899	1.022384522507924	-0.1340349782263469	-0.4446711830084292
147.524	-0.2761115077092935	0.009883654370330772	-0.01659944151193269	1.107359544386284	0.9798111531570399	-0.3444324977783376	-0.03846035920471881	0.00535790216527762	0.05725595023746315	0.2402754848998893	0.240275484768178	-0.08283203643073324	-0.2523992040886752	0.7458366497668004	0.01933221119034621	0.06998400748594411	0.9748800670518977	0.974880067446912	-0.1286703158957833	-0.4355945732049592
147.528	-0.2788820517078499	0.02015099420252316	-0.01290804570273267	1.108643693527445	0.9825961094900504	-0.3447523629198889	-0.0532609303264344	-0.005975585401495544	0.04674304158918254	0.2220188254916799	0.222018825210579	-0.1207635243231678	-0.2526197272129108	0.7436968359045647	0.03280204836790421	0.06944574566135166	0.9268650549920288	0.9268650555341011	-0.1226392408039253	-0.42427699268251
147.532	-0.2814531128529211	0.02993335001869743	-0.009299842691080581	1.10994612486178	0.9852720263385438	-0.3450540734327532	-0.0675066309041441	-0.01666526131369378	0.03530756463999218	0.2054204123292149	0.2054204118882194	-0.1577473744840274	-0.252636395167106	0.7408269644761257	0.0455360423499589	0.06918285416636875	0.8785352582900825	0.8785352589981991	-0.1159649800545428	-0.4107854587231107
147.536	-0.2838280935331963	0.03912453676706079	-0.005794780383391448	1.111258517022029	0.9878265289605384	-0.3453347889124902	-0.08114543923146142	-0.02659743549706996	0.02312558407396701	0.1906478447179216	0.1906478441140027	-0.193429010434333	-0.2524971117869111	0.7373100932199259	0.05741925245353703	0.06920955697257808	0.8300964513581481	0.8300964522391366	-0.1086927835672535	-0.3952513644732089
147.54	-0.2860147027022611	0.04762554219418469	-0.002414325513629872	1.112571695941521	0.990247742176365	-0.3455923598696662	-0.09412120718819504	-0.03567106826785305	0.01039647676843527	0.1778663217060323	0.1778663209446427	-0.2274664972187841	-0.2522508985285052	0.7332364128871848	0.06834752343450541	0.06953413341396364	0.7817618720928361	0.7817618731394175	-0.1008878858120532	-0.3778703086457346
147.544	-0.2880242678932062	0.0553471191878293	0.0008192833456324687	1.113875741081274	0.9925245167955901	-0.3458254143312112	-0.1063750060779312	-0.04380049862341567	-0.002661920981194466	0.1672353155414571	0.1672353146368843	-0.2595396489111473	-0.2519458421495759	0.7287014354732552	0.07823045345033107	0.07016040328821573	0.7337492775260596	0.7337492787163715	-0.09263270992631258	-0.3588997428232751
147.548	-0.2898709665614418	0.06221211456532071	0.003883755521640601	1.115160135320896	0.9946466581393861	-0.3460334014815049	-0.1178467529681667	-0.05091754414408428	-0.01581870983319677	0.1589048540619408	0.1589048530368255	-0.2893591619532304	-0.2516273705703924	0.7238039152824318	0.08699392088615485	0.07108935832859929	0.6862777183094794	0.6862777196081051	-0.08402343643284392	-0.3386542924643116
147.552	-0.2915710218390553	0.06815743760408646	0.006757404737172883	1.116413954654873	0.9966051417983004	-0.3462165897208141	-0.1284770174939636	-0.05697290059399597	-0.02883574176000231	0.1530115988336475	0.1530115977175496	-0.3166752896647445	-0.2513368288497166	0.7186436052051147	0.09458204760691426	0.07232080616093044	0.6395641845423007	0.6395641859025534	-0.07516610192224943	-0.3174987239085944
147.556	-0.2931418858480985	0.07313557352515498	0.009419710045675166	1.117626092504412	0.9983923039899139	-0.3463760187377136	-0.1382089294852992	-0.0619367929587336	-0.04147368977191403	0.1496749081916084	0.1496749070186429	-0.3412855767421721	-0.2511103420727679	0.7133189408187217	0.1009584895644234	0.07385487784245393	0.593820292271157	0.593820293638218	-0.06617241558133438	-0.295838646294047
147.56	-0.2946014289811554	0.07711557215171556	0.0118517624325863	1.1187855124347	1.000001995539067	-0.346513408687404	-0.1469901082085844	-0.06579887597170073	-0.05349820771702296	0.1489930837488685	0.1489930825546742	-0.3630412000986744	-0.2509779551609838	0.7079247460269485	0.1061069894700904	0.07569325203041752	0.5492491792634279	0.5492491805778843	-0.05715549151131	-0.2741091529841954
147.564	-0.2959671482695331	0.08008349231279233	0.01403660041816874	1.119881521673305	1.001429690921017	-0.3466310339312391	-0.1547745323327003	-0.06856745114722432	-0.06468605394978687	0.1510400165830467	0.1510400154015794	-0.381851505014047	-0.2509630208927444	0.7025500475788774	0.1100311988067412	0.07783995831595829	0.5060427595558922	0.5060427607572723	-0.04822568770000154	-0.2527617089599111
147.568	-0.2972553441564162	0.08204234537942579	0.01595945517294342	1.1209040577578	1.002672551169326	-0.3467315713034389	-0.1615243504515424	-0.07026813828142353	-0.07483108702318619	0.1558624184854509	0.1558624173461717	-0.3976864181270741	-0.2510818174152253	0.6972760082877959	0.1127538518308261	0.0803016173720499	0.4643794522362075	0.4643794532662411	-0.03948668591310166	-0.2322496499511261
147.572	-0.2984801482136828	0.08301162187002109	0.01760792936192357	1.121843981196604	1.003729447283489	-0.3468179330926813	-0.1672117310245916	-0.07094217760211498	-0.0837500271608617	0.1634777484473064	0.1634777473732664	-0.4105765601296915	-0.251343429293043	0.6921739039288558	0.1143154176016461	0.08308698185863744	0.4244224617574686	0.424422462562972	-0.03103187380424473	-0.2130127069034633
147.576	-0.2996523488555545	0.08302647629521484	0.01897213316623607	1.122693364417096	1.004600948811924	-0.3468930959781397	-0.1718207846734748	-0.07064452670036599	-0.09128782341682273	0.1738729146814449	0.1738729136885631	-0.4206110128916197	-0.2517499477137479	0.6873031310358433	0.1147723574675699	0.08620571505991599	0.386318656977178	0.3863186575126449	-0.02294109152787364	-0.1954610773800065
147.58	-0.3007781125088562	0.0821366152813601	0.02004480688929209	1.12344576268543	1.005289273706193	-0.3469599396997658	-0.1753494091406694	-0.06944188179152827	-0.0973224207323464	0.1870038580814515	0.1870038571788831	-0.4279328108399971	-0.252297015333259	0.6827093896782208	0.1141951052520506	0.08966646707346811	0.350198066249287	0.3501980664793102	-0.01527786696311083	-0.1799597089199241
